<svg width="150" height="150" viewBox="0 0 150 150" fill="none" xmlns="http://www.w3.org/2000/svg">
  <defs>
    <linearGradient id="chatbook-bg" x1="75" y1="0" x2="75" y2="150" gradientUnits="userSpaceOnUse">
      <stop offset="0" stop-color="#58AEFF"/>
      <stop offset="1" stop-color="#0668D8"/>
    </linearGradient>
  </defs>
  <rect width="150" height="150" rx="33" fill="url(#chatbook-bg)"/>
  <!-- incoming bubble: a page of text (the book) -->
  <path d="M24 50 Q24 34 40 34 H82 Q98 34 98 50 V64 Q98 80 82 80 H29 Q24 80 24 75 Z" fill="#FFFFFF"/>
  <rect x="36" y="45" width="44" height="7" rx="3.5" fill="#9FC3F5"/>
  <rect x="36" y="57" width="32" height="7" rx="3.5" fill="#9FC3F5"/>
  <!-- outgoing bubble: typing dots (the chat) -->
  <path d="M62 102 Q62 88 76 88 H112 Q126 88 126 102 V121 Q126 126 121 126 H76 Q62 126 62 112 Z" fill="#FFFFFF"/>
  <circle cx="81" cy="107" r="5" fill="#0A84FF"/>
  <circle cx="94" cy="107" r="5" fill="#0A84FF"/>
  <circle cx="107" cy="107" r="5" fill="#0A84FF"/>
</svg>
